<?xml version="1.0" encoding="utf-8"?>
<!-- Generator: Adobe Illustrator 22.0.1, SVG Export Plug-In . SVG Version: 6.00 Build 0)  -->
<svg version="1.1" id="Calque_1" xmlns="http://www.w3.org/2000/svg" xmlns:xlink="http://www.w3.org/1999/xlink" x="0px" y="0px"
	 viewBox="0 0 432 432" style="enable-background:new 0 0 432 432;" xml:space="preserve">
<style type="text/css">
	.st0{fill:#957452;}
	.st1{fill:#88573C;}
	.st2{fill:#D6C49A;}
	.st3{fill:#E52627;}
	.st4{fill:#CDCCCC;}
	.st5{fill:#264395;}
	.st6{fill:#1E274A;}
	.st7{fill:#EC6625;}
	.st8{fill:#020203;}
	.st9{fill:#E52521;}
	.st10{fill:#808181;}
	.st11{fill:#FFE324;}
	.st12{fill:#3F4244;}
	.st13{fill:#009F4A;}
	.st14{fill:#343434;}
	.st15{fill:#78170E;}
	.st16{fill:#F0E9D5;}
	.st17{fill:#272531;}
	.st18{fill:#222B56;}
	.st19{fill:#9BD2CC;}
	.st20{fill:#83B143;}
	.st21{fill:#1B1B1B;}
	.st22{fill:#FFFFFF;}
	.st23{fill:#DDD6C3;}
	.st24{fill:#997F64;}
	.st25{fill:#77684B;}
	.st26{fill:#A89877;}
	.st27{fill:#B4B4B4;}
	.st28{fill:#DDCEBB;}
	.st29{fill:#9A2A1A;}
	.st30{fill:#5E1C0C;}
	.st31{fill:#F1CA43;}
	.st32{fill:#A57B46;}
	.st33{fill:#F18538;}
	.st34{fill:#F2AC64;}
	.st35{fill:#FAB42D;}
	.st36{fill:#46494E;}
	.st37{fill:#CF875E;}
	.st38{fill:#E7E6E6;}
	.st39{fill:#1A181D;}
	.st40{fill:#637644;}
	.st41{fill:#9F1E29;}
	.st42{fill:#F9B03D;}
	.st43{fill:#0D71B9;}
	.st44{fill:#E52629;}
	.st45{fill:#676767;}
	.st46{fill:#30358C;}
	.st47{fill:#9A9999;}
	.st48{fill:#3F4798;}
	.st49{fill:#2DABE3;}
	.st50{fill:#C1292E;}
	.st51{fill:#F2F2F2;}
	.st52{fill:#AA7C4C;}
	.st53{fill:#D6A573;}
	.st54{fill:#29ACE1;}
	.st55{fill:#88C05E;}
	.st56{fill:#F39323;}
	.st57{fill:#EB5B28;}
	.st58{fill:#B85965;}
	.st59{fill:#A67D52;}
	.st60{fill:#8C633A;}
	.st61{fill:#009245;}
	.st62{fill:#066938;}
	.st63{fill:#7D252D;}
	.st64{fill:#95D3E3;}
	.st65{fill:#603914;}
	.st66{fill:#EFC9AF;}
	.st67{fill:#D987B8;}
	.st68{fill:#8FC14D;}
	.st69{fill:#C69C6C;}
	.st70{fill:#2BADE1;}
	.st71{fill:#A4C958;}
	.st72{fill:#754D24;}
	.st73{fill:#35AE73;}
	.st74{fill:#E0B99E;}
	.st75{fill:#BDCCD4;}
	.st76{fill:#0C0D0D;}
	.st77{fill:#F4E152;}
	.st78{fill:#1E1911;}
	.st79{fill:#A1BD4F;}
	.st80{fill:#CBE6DC;}
	.st81{fill:#B5DCCE;}
	.st82{fill:#1F1D1B;}
	.st83{fill:#746458;}
	.st84{fill:#C7B29A;}
	.st85{fill:#998675;}
	.st86{fill:#428540;}
	.st87{fill:#E3E5E3;}
	.st88{fill:#161617;}
	.st89{fill:#1E1F1E;}
	.st90{fill:#474847;}
	.st91{fill:#191A19;}
	.st92{fill:#4B2C15;}
	.st93{fill:#92552A;}
	.st94{fill:#7EA847;}
	.st95{fill:#D59E2B;}
	.st96{fill:#807E79;}
	.st97{fill:#E5B744;}
	.st98{fill:#8EC045;}
	.st99{fill:#3B569A;}
	.st100{fill:#A1B7E0;}
	.st101{fill:#8FC9CC;}
	.st102{fill:#9ED1CA;}
	.st103{fill:#81AAA9;}
	.st104{fill:#E1783D;}
	.st105{fill:#64328A;}
	.st106{fill:#DEDEA5;}
	.st107{fill:#754997;}
	.st108{fill:#EE6F43;}
	.st109{fill:#A6CB67;}
	.st110{fill:#8FB7C0;}
	.st111{fill:#E2E1DF;}
	.st112{fill:#2C3E70;}
	.st113{fill:#D9BF96;}
	.st114{fill:#9C6941;}
	.st115{fill:#61605E;}
	.st116{fill:#9C9A99;}
	.st117{fill:#245F3D;}
	.st118{fill:#191713;}
	.st119{fill:#C39A62;}
	.st120{fill:#A17C4F;}
	.st121{fill:#F39200;}
	.st122{fill:#432918;}
	.st123{fill:#B17F4A;}
	.st124{fill:#FFCE1E;}
	.st125{fill:#BE1622;}
	.st126{fill:#3AAA35;}
	.st127{fill:#911825;}
	.st128{fill:#009FE3;}
	.st129{fill:#E94E1B;}
	.st130{fill:#FFCC03;}
	.st131{fill:#95C11F;}
	.st132{fill:#00A19A;}
	.st133{fill:#683C11;}
	.st134{fill:#878787;}
	.st135{fill:#634E42;}
	.st136{fill:#CBBBA0;}
	.st137{fill:#7B5B41;}
	.st138{fill:#493E36;}
	.st139{fill:#78A62C;}
	.st140{fill:#2C8535;}
	.st141{fill:#F9B233;}
	.st142{fill:none;}
	.st143{fill:#CA9E67;}
	.st144{fill:#E30613;}
	.st145{fill:#C6C6C6;}
	.st146{fill:#575756;}
	.st147{fill:#7B6A58;}
	.st148{fill:#A3C5D7;}
	.st149{fill:#332C25;}
	.st150{fill:#29235C;}
	.st151{fill:#E6332A;}
	.st152{fill:#738D93;}
	.st153{fill:#C87B31;}
	.st154{fill:#5BBCA7;}
	.st155{fill:#EF786F;}
	.st156{fill:#EE8D9E;}
	.st157{fill:#A74B56;}
	.st158{fill:#E72D7B;}
	.st159{fill:#E84138;}
	.st160{fill:#3B2315;}
	.st161{fill:#8EC044;}
	.st162{fill:#A1C74B;}
	.st163{fill:#231F20;}
	.st164{fill:#F6D9A7;}
	.st165{fill:#F4A5A6;}
	.st166{fill:#6E6F70;}
	.st167{fill:#F8AF41;}
	.st168{fill:#B79C19;}
	.st169{fill:#EFD101;}
	.st170{fill:#207A97;}
	.st171{fill:#20ACE3;}
	.st172{fill:#C51618;}
	.st173{fill:#C19446;}
	.st174{fill:#9E599F;}
	.st175{fill:#CD95C2;}
	.st176{fill:#F29A26;}
	.st177{fill:#FCCE8D;}
	.st178{fill:#F39B85;}
	.st179{fill:#E52628;}
	.st180{fill:#6BB52D;}
</style>
<g>
	<g>
		<g>
			<path class="st43" d="M261.1,96.2c0.3,0.1,0.5,0.2,0.7,0.3c3.2,1.5,4.8,4.1,5.2,7.5c0.2,2.1-0.5,3.9-1.9,5.4
				c-1.9,2-4.3,3.1-7,3.4c-0.2,0-0.3,0-0.5,0.1c-0.1,0.3-0.2,0.6-0.3,1c-0.6,2.2-1.5,4.2-2.6,6.2c-1.8,3.2-4.4,5.2-8,6
				c-4.4,1-8.4-2.3-8.2-6.7c0-0.9,0.3-1.7,0.9-2.4c1.1-1.3,2.8-1.3,4-0.1c1.3,1.4,1.2,3.4-0.2,4.7c-0.1,0.1-0.1,0.1-0.2,0.2
				c0.3,0.6,0.9,0.7,1.5,0.8c0.4,0.1,0.9,0.1,1.3,0c1.8-0.4,3.4-1.1,4.6-2.6c0.4-0.5,0.8-1,1.1-1.5c1-1.8,1.8-3.7,2.4-5.8
				c-0.1-0.1-0.3-0.2-0.4-0.2c-4.4-1.8-7.2-6.1-6.8-10.9c0.2-2.5,1.3-4.6,3-6.4c1.1-1.1,2.4-2.1,3.8-2.9c1.5-0.9,2.9-1.7,4.4-2.5
				c0.6-0.3,0.9-0.7,1-1.4c0.7-3.9,2-7.8,3.5-11.4c0.7-1.5,1.5-3,2.5-4.3c0.7-0.9,1.6-1.7,2.7-2.3c2.2-1.1,4.3-0.9,6.2,0.6
				c1.2,0.9,1.9,2.2,2,3.8c0.1,1.5-0.3,3-0.9,4.4c-1,2-2.3,3.8-3.9,5.4c-2.5,2.5-5.2,4.6-8.3,6.4c-0.5,0.3-0.7,0.6-0.8,1.2
				C261.7,93.4,261.4,94.8,261.1,96.2z M263,86.8c0.3-0.2,0.5-0.3,0.6-0.4c2-1.4,3.8-2.9,5.5-4.6c1.1-1.1,2-2.3,2.7-3.7
				c0.4-0.8,0.7-1.6,0.8-2.5c0.1-0.9-0.1-1.8-1.1-2.3c-0.9-0.5-1.8-0.4-2.6,0.2c-0.5,0.4-0.9,0.8-1.2,1.3c-0.6,0.9-1.1,1.8-1.6,2.8
				c-1.2,2.5-2,5-2.8,7.6C263.2,85.7,263.1,86.1,263,86.8z M254.7,109.3c0.7-3.3,1.4-6.5,2.1-9.8c-0.1,0-0.1-0.1-0.2-0.1
				c-0.3,0.2-0.6,0.4-0.8,0.7c-0.3,0.3-0.5,0.7-0.7,1c-0.3,0.5-0.7,0.7-1.1,0.6c-0.4-0.1-0.8-0.5-0.7-1c0-0.4,0.1-0.9,0.3-1.2
				c0.5-1.2,1.3-2.1,2.5-2.7c0.5-0.2,0.9-0.4,1.5-0.6c0.1-0.7,0.3-1.5,0.5-2.5c-0.7,0.4-1.3,0.7-1.9,1.1c-1.4,0.9-2.8,1.8-3.9,2.9
				c-1.3,1.3-2,2.9-2.1,4.7c-0.1,3,1.5,5.1,3.9,6.6C254.1,109.1,254.3,109.1,254.7,109.3z M260.5,99.4c-0.7,3.3-1.4,6.5-2.1,9.9
				c0.2,0,0.4,0,0.5,0c1.5-0.4,2.9-1.2,3.9-2.5c0.5-0.6,0.7-1.2,0.8-1.9c0.2-2-1-4.5-2.8-5.4C260.7,99.4,260.6,99.5,260.5,99.4z"/>
			<path class="st43" d="M180.6,100.1c0.3,1.5,0.7,3,1,4.5c1.1,4.9,2.2,9.7,3.3,14.6c0.2,1,0.4,1.9,0.5,2.9c0.2,0.9-0.1,1.8-0.5,2.6
				c-1,1.7-2.5,2.7-4.5,3c-2.4,0.4-4-1.7-3-3.9c0.7-1.8,1.9-3.2,3.7-4c0.1-0.1,0.3-0.1,0.5-0.2c-0.3-1.1-0.6-2.2-0.9-3.3
				c-0.9-3.9-1.8-7.7-2.8-11.6c-0.3-1.3-0.6-2.6-0.9-3.9c-0.5-2.2,0.1-3.3,2.1-4.4c3.7-1.9,7.4-3.8,11.1-5.7c0.5-0.3,1-0.6,1.5-0.8
				c1.5-0.7,2.9-0.4,3.8,0.9c0.5,0.7,0.9,1.5,1.1,2.4c0.7,2.4,1.3,4.8,1.8,7.3c1,4.3,2,8.7,2.9,13.1c0.6,2.9,0.1,5.6-2.1,7.9
				c-0.3,0.3-0.7,0.7-1.1,0.9c-1,0.7-2.1,0.7-3.1,0c-1.1-0.7-1.4-1.7-1.3-2.9c0.3-1.9,1.1-3.5,2.7-4.6c0.2-0.2,0.5-0.3,0.8-0.6
				c-1.9-6.7-3.1-13.7-4.9-20.6C188.5,96,184.6,98,180.6,100.1z"/>
			<path class="st43" d="M223.4,96.5c-0.4-2.5-0.7-5-1-7.5c-0.9-6.4-1.8-12.9-2.6-19.3c-0.1-0.9-0.2-1.7-0.2-2.6
				c0-0.5,0.2-1.1,0.5-1.5c0.7-1.1,2.3-1.1,3,0c1.3,2.2,3.4,3.2,5.6,4.1c0.7,0.3,1.4,0.5,2,0.9c1.8,1,2.6,3,2.1,5
				c-0.1,0.3-0.2,0.6-0.3,0.8c-0.2,0.3-0.5,0.5-1,0.5c-0.4,0-0.7-0.3-0.8-0.7c-0.1-0.4-0.2-0.9-0.4-1.3c-0.2-0.6-0.5-1-1.1-1.3
				c-0.1-0.1-0.3-0.1-0.4-0.2c-1.4-0.6-2.8-1.1-4.3-1.7c0,0.1,0,0.3,0,0.4c1,7.9,2.1,15.7,3.1,23.6c0.1,0.6,0.2,1.3,0.3,1.9
				c0.2,1.2,0,2.4-0.6,3.5c-1.3,2.6-3.5,4-6.3,4.4c-2.1,0.3-3.8-1.6-3.2-3.7c0.6-2.3,2.2-3.9,4.3-4.8
				C222.5,96.8,222.9,96.7,223.4,96.5z"/>
		</g>
		<g>
			<path class="st46" d="M330.2,193.3c0-3-0.2-6-0.4-8.9c-0.1-1-0.3-2-0.5-2.9c-0.3-1.1-1-2-2-2.5c-0.3-0.1-0.6-0.3-0.9-0.4
				c-0.5-0.2-0.8-0.6-0.8-1.2c0-0.8,0-1.5,0-2.3c0-1.2,0-2.4-0.2-3.6c-0.2-1.4-1.3-2.9-3-3.1c-0.7-0.1-1.4-0.1-2.2-0.2
				c-0.1-0.6-0.2-1.2-0.2-1.7c0-2.9,0-5.8,0.1-8.7c0-3.5,0.1-7,0-10.5c0-2.6,0-5.2-0.1-7.8c0-1.1-0.2-2.2-0.4-3.4
				c-0.1-0.4-0.2-0.8-0.5-1.2c-0.3-0.4-0.6-0.8-1.2-0.8c-1.2-0.1-2.4-0.2-3.5-0.2c-4.4,0.1-8.8,0.3-13.1,0.5
				c-3.1,0.1-6.1,0.2-9.2,0.2c-6.1,0.2-12.3,0.3-18.4,0.5c-0.2,0-0.5,0-0.9,0c0.4-0.3,0.6-0.4,0.8-0.6c4.5-2.9,9.1-5.8,13.6-8.7
				c1.3-0.8,2.4-1.8,3.6-2.7c0.3-0.2,0.5-0.5,0.7-0.7c0.3-0.4,0.3-1,0-1.4c-0.3-0.4-0.8-0.6-1.3-0.5c-0.2,0.1-0.5,0.1-0.7,0.3
				c-0.8,0.4-1.6,0.8-2.3,1.3c-6.3,4.3-12.8,8.1-18.8,12.8c-0.3,0.3-0.7,0.4-1.1,0.4c-10.2,0-20.3,0.1-30.5,0.1c-10,0-20-0.1-29.9,0
				c-12.8,0.1-25.7,0.1-38.5,0.1c-0.8,0-1.4-0.2-2.1-0.7c-3-2.2-6-4.4-8.9-6.7c-3.9-3-7.7-6-11.6-9c-0.7-0.5-1.4-1-2.2-1.5
				c-0.3-0.2-0.7-0.3-1.1-0.4c-0.8-0.1-1.4,0.7-1.1,1.4c0.2,0.4,0.4,0.8,0.7,1.1c0.9,0.9,1.8,1.7,2.8,2.5
				c5.4,4.2,10.6,8.7,16.3,12.6c0.2,0.1,0.3,0.3,0.6,0.5c-0.5,0-0.7,0-1,0c-3.8-0.1-7.6-0.3-11.4-0.3c-9.8-0.1-19.6-0.4-29.3-1
				c-1.6-0.1-3.2,0-4.8,0.4c-2.1,0.6-2.3,1.3-2.4,2.9c-0.2,3.7-0.4,7.4-0.5,11.1c-0.1,6.5-0.1,13.1,0.2,19.6c0,0.4,0,0.7,0,1.2
				c-0.4,0.1-0.7,0.1-1,0.2c-0.9,0.2-1.8,0.4-2.7,0.7c-1,0.4-1.5,1.2-1.6,2.2c-0.1,0.9-0.1,1.8,0,2.7c0.3,1.9-0.1,3.5-1.8,4.6
				c-1.1,0.7-1.7,1.8-1.9,3c-0.4,2.2-0.6,4.4-0.5,6.7c0.2,5.7,0.4,11.5,0.5,17.2c0.2,7.2,0.3,14.5,0.5,21.7
				c0.2,6.7,0.4,13.5,0.6,20.2c0.2,4.9,0.4,9.7,0.5,14.6c0.2,6.6,0.4,13.3,0.6,19.9c0.1,4,0,8.1,0.1,12.1c0,2.2,0.1,4.4,0.2,6.5
				c0,0.8,0.1,1.7,0.2,2.5c0.1,1.2,0.8,2,1.9,2.2c0.6,0.1,1.2,0.2,1.8,0.2c4.9-0.1,9.7-0.2,14.6-0.4c8.2-0.4,16.3-0.5,24.5-0.2
				c6.5,0.2,12.9,0.4,19.4,0.4c20.7,0.1,41.5,0.2,62.2,0.2c8.5,0,17-0.2,25.6-0.2c14.1,0,28.2-0.1,42.4-0.5
				c4.2-0.1,8.4-0.4,12.6-0.8c2.1-0.2,4.3-0.4,6.4-0.5c2.2-0.1,4.4-0.2,6.6-0.3c1.1-0.1,2.2-0.2,3.2-0.6c0.5-0.2,0.9-0.6,1.2-1.1
				c0.4-0.8,0.5-1.7,0.5-2.6c0.1-6.1,0.1-12.2,0.2-18.3c0-3.3,0-6.6,0.1-9.9c0.1-7.6,0.3-15.2,0.4-22.8c0.1-8,0.1-16,0.1-24
				C330.2,214.1,330.2,203.7,330.2,193.3z M116.1,137.2c1.1-0.1,2.2-0.2,3.3-0.1c5.2,0.3,10.3,0.7,15.5,1c2.6,0.1,5.2,0.1,7.7,0.2
				c6.5,0.2,12.9,0.4,19.4,0.5c9.8,0.1,19.6,0.2,29.4,0.2c21.1,0,42.2-0.1,63.3-0.2c5.9,0,11.7,0,17.6-0.1c6.3-0.1,12.6-0.3,19-0.5
				c6.2-0.2,12.4-0.4,18.6-0.5c1.8-0.1,3.5-0.1,5.3-0.1c1.4,0,1.5,0.1,1.6,1.5c0.1,1.1,0,2.3,0,3.5c-0.4,0-0.7,0-1,0
				c-6.8,0-13.7-0.1-20.5-0.1c-6.7,0-13.4,0-20.1-0.1c-7.7-0.1-15.4-0.3-23.1-0.4c-6.9-0.1-13.7-0.1-20.6-0.1
				c-16.2-0.1-32.4-0.2-48.6-0.2c-10.4,0-20.8,0.1-31.1,0.3c-7.9,0.1-15.8,0.4-23.6,0.6c-3.8,0.1-7.5,0.1-11.3,0.2
				c-0.3,0-0.5,0-0.8,0C116.1,140.9,116.1,139.1,116.1,137.2z M236,165.7c3-2.4,5.9-4.9,8.9-7.3c3-2.5,6.1-5.1,9.1-7.6
				c1.7-1.5,3.5-3,5.2-4.5c0.4-0.4,0.8-0.5,1.3-0.5c6.7,0.1,13.5,0.2,20.2,0.3c11.7,0.1,23.4,0.1,35.1,0.2c0.3,0,0.5,0,0.9,0
				c-0.1,7.4-0.1,14.8-0.2,22.2c-0.9-0.1-1.6-0.1-2.3-0.2c-1.7-0.1-3.3-0.2-5-0.3c-7.4-0.3-14.8-0.2-22.2,0
				c-7.5,0.2-15,0.3-22.5,0.5c-10.4,0.3-20.9,0.6-31.3,0.9c-0.7,0-1.3,0-2,0c0,0,0-0.1,0-0.1C232.8,168.1,234.4,166.9,236,165.7z
				 M228.9,166.9c-1.1,0.8-2.1,1.6-3.1,2.4c-0.3,0.3-0.7,0.3-1,0.3c-3,0-6.1,0-9.1,0.1c-2.2,0-4.5,0-6.7,0c-0.5,0-0.9-0.1-1.3-0.4
				c-1.7-1.5-3.4-2.9-5.1-4.3c-7.4-6.6-15-12.9-22.7-19.1c-0.2-0.1-0.3-0.3-0.6-0.5c1.9-0.2,74.3,0.3,75.4,0.6
				c-0.1,0.1-0.3,0.2-0.4,0.3c-2.4,2-4.9,4.1-7.3,6.1c-2.3,1.9-4.7,3.8-7,5.8c-0.4,0.3-0.8,0.7-1.2,1
				C235.7,162,232.2,164.4,228.9,166.9z M117.3,145.9c7.9,0.1,15.8,0.1,23.6-0.1c10.6-0.3,21.2-0.4,31.9-0.6c0.7,0,1.2,0.1,1.8,0.6
				c2.6,2.1,5.1,4.3,7.7,6.4c6.6,5.6,13.1,11.2,19.6,16.8c0.2,0.2,0.4,0.3,0.7,0.7c-0.4,0-0.7,0-0.9,0c-12.7-0.1-25.4-0.1-38.1-0.2
				c-3.6,0-7.1-0.2-10.7-0.3c-8.4-0.2-16.8-0.4-25.2-0.5c-3.5,0-6.9,0.2-10.4,0.2c-0.3,0-0.6,0-1,0c-0.1-7.6-0.3-15.2-0.3-22.9
				C116.6,145.9,117,145.9,117.3,145.9z M325.8,300.8c-0.4,0-0.6,0-0.9,0c-1.8,0-3.7,0-5.5,0c-3,0-6,0.3-8.9,0.6
				c-2.7,0.2-5.4,0.5-8,0.5c-11.5,0.2-23,0.5-34.5,0.4c-11.3,0-22.6,0.1-34,0.1c-22.3,0.1-44.5,0-66.8-0.2
				c-8.9-0.1-17.7-0.4-26.6-0.5c-3.9-0.1-7.9,0.1-11.9,0.2c-5.8,0.2-11.7,0.4-17.5,0.6c-0.5,0-1,0-1.5,0c0-6.4,0-12.7-0.1-19.1
				c-0.1-5.3-0.2-10.6-0.3-16c-0.2-5.6-0.4-11.1-0.6-16.7c-0.2-4.6-0.3-9.3-0.5-13.9c-0.2-5.9-0.3-11.8-0.5-17.7
				c-0.1-3.8-0.2-7.5-0.3-11.3c0-0.3,0-0.6,0-0.9c0.3,0,0.5,0,0.8,0c4.2,0.5,8.5,0.8,12.7,0.7c4.7-0.1,9.4-0.1,14-0.2
				c0.6,0,0.9,0.2,1.2,0.7c1.8,2.5,3.6,5,5.4,7.6c1.2,1.7,2.8,2.6,4.8,2.9c1.1,0.2,2.3,0.3,3.4,0.3c6.8,0.2,13.5,0,20.2-0.2
				c4.9-0.2,9.8-0.2,14.8-0.3c0.5,0,1,0,1.6,0c0,0.3,0,0.6,0,0.9c-0.1,6.3-0.3,12.7-0.3,19c-0.1,17.1-0.2,34.3-0.3,51.4
				c0,1.4,0.1,2.9,0.2,4.3c0.3,2.4,1.7,4,4,4.7c1.2,0.3,2.5,0.5,3.7,0.7c6.3,0.6,12.6,0.8,18.9,0.8c7.1,0,14.1-0.1,21.2-0.2
				c3,0,6,0,9-0.1c3-0.1,4.8-1.5,5.8-4.4c0.6-1.8,0.8-3.6,0.9-5.5c0.1-2.4,0.2-4.8,0.2-7.3c0.1-10.1,0.3-20.1,0.3-30.2
				c0-5.2,0-10.4-0.1-15.7c-0.1-5.8-0.3-11.6-0.4-17.3c0-0.6,0-1.1,0-1.7c0.3,0,0.5,0,0.7,0c6.8,0.1,13.7,0.2,20.5,0.1
				c5.4,0,10.9-0.3,16.3-0.5c1.1,0,2.1-0.2,3.2-0.3c1.7-0.3,3.3-1,4.7-2c2.4-1.7,4.5-3.7,6.5-5.9c1.1-1.2,2.2-2.5,3.3-3.8
				c0.4-0.5,0.8-0.7,1.5-0.7c6.3,0,12.6,0,19,0c0.5,0,1.1,0,1.6,0c0,0.2,0,0.4,0,0.6C326.7,237.4,326,269,325.8,300.8z M139.8,207.6
				c5.3,0,10.5,0.2,15.7,0.2c5.2,0,10.3,0,15.5,0c5.2,0,10.4-0.1,15.6-0.2c-0.1,2.4-0.1,4.8-0.2,7.2c-0.3,0-0.5,0-0.7,0
				c-5.3,0.1-10.6,0.1-15.9,0.3c-6.9,0.2-13.7,0.5-20.6,0.2c-0.9,0-1.8-0.2-2.6-0.3c-0.9-0.1-1.7-0.6-2.2-1.3
				c-0.6-0.8-1.3-1.6-1.9-2.4C141.6,210.1,140.8,208.9,139.8,207.6z M190.3,196.9c3-0.1,6-0.3,8.9-0.4c9.5-0.2,19-0.6,28.5-0.4
				c3.6,0.1,7.2,0,10.7,0c1.6,0,3.2,0.2,4.7,0.3c0.1,0,0.2,0,0.3,0c1.3,0.2,1.7,0.6,1.8,1.9c0,0.2,0,0.5,0,0.7
				c0.2,10.1,0.4,20.3,0.6,30.4c0.3,11.5,0.3,22.9,0.2,34.4c-0.1,7.8-0.2,15.6-0.4,23.5c0,2.2-0.1,4.4-0.6,6.5
				c-0.1,0.4-0.2,0.9-0.4,1.3c-0.3,0.8-0.9,1.2-1.7,1.2c-0.9,0-1.7,0.1-2.6,0.1c-5.1,0-10.2,0-15.3,0.1c-5.6,0-11.2,0.1-16.8,0.1
				c-5,0-9.9-0.3-14.9-0.8c-0.9-0.1-1.7-0.3-2.5-0.5c-0.7-0.2-1.2-0.7-1.3-1.5c-0.1-1-0.2-2-0.2-3c0-6.3,0.1-12.5,0.1-18.8
				c0-6.7,0-13.5,0-20.2c0.1-9.5,0.2-18.9,0.4-28.4c0.2-8.1,0.5-16.3,0.4-24.4C190.3,198.3,190.3,197.7,190.3,196.9z M249.1,206.2
				c0.1-0.1,0.2-0.1,0.2-0.1c2.4,0,4.8,0,7.2,0.1c5.5,0.1,11.1-0.1,16.6-0.3c5.1-0.2,10.3-0.3,15.4-0.4c3.6-0.1,7.1-0.2,10.7-0.3
				c0.3,0,0.5,0,0.9,0c-0.1,0.2-0.2,0.3-0.3,0.4c-1.8,2.1-3.7,4-5.7,5.8c-2.1,1.8-4.4,2.6-7.1,2.7c-2.9,0.1-5.7,0.2-8.6,0.3
				c-7.2,0.3-14.5,0.2-21.7,0.1c-2.3,0-4.7-0.2-7,0c-0.1,0-0.2,0-0.4,0C249.2,211.7,249.1,208.9,249.1,206.2z M326.6,201.4
				c-0.2,0-0.4,0-0.5,0c-2.2,0-4.4-0.1-6.6-0.1c-10.4-0.1-20.7,0.1-31.1,0.4c-4.5,0.1-9.1,0.2-13.6,0.4c-3.1,0.1-6.2,0.3-9.3,0.3
				c-3,0.1-6.1,0-9.1,0c-2,0-3.9,0.1-5.9,0.1c-0.5,0-0.9,0.1-1.5,0.2c0-0.3,0-0.6,0-0.9c0-1.4,0-2.8-0.1-4.2
				c-0.2-2.5-1.6-4.1-4.1-4.7c-1-0.2-2.1-0.4-3.2-0.4c-3.3-0.1-6.6-0.2-9.9-0.2c-5.6,0-11.1-0.1-16.7,0c-6.5,0.1-12.9,0.3-19.4,0.5
				c-2,0.1-4,0.3-6,0.4c-2,0.1-2.8,1.3-2.9,3.2c-0.1,2.3-0.1,4.5-0.2,6.8c0,0.1,0,0.3,0,0.5c-0.4,0-0.7,0.1-1.1,0.1
				c-8.3,0.1-16.7,0.2-25,0.2c-9.8,0-19.7-0.1-29.5-0.1c-3.7,0-7.4,0.1-11.1,0.2c-3.4,0.1-6.8-0.1-10.1-0.5
				c-0.8-0.1-1.6-0.1-2.4-0.2c0-1.1-0.1-2.2-0.1-3.2c-0.1-3.9-0.3-7.7-0.4-11.6c0-1.7,0.1-3.3,0.2-5c0-0.9,0.3-1.6,1.1-2.1
				c2-1.4,2.7-3.4,2.8-5.7c0-0.6,0-1.2-0.1-1.9c0-0.3,0-0.6,0-1c0.7-0.1,1.4-0.3,2.1-0.3c5.6-0.4,11.3-0.5,16.9-0.4
				c8.3,0.2,16.5,0.3,24.8,0.6c14,0.6,28,0.4,41.9,0.5c11.7,0,23.3,0,35-0.1c6.1,0,12.3-0.2,18.4-0.4c15.9-0.6,31.9-1,47.8-1.2
				c5.8-0.1,11.7,0.2,17.5,0.3c2,0,4,0,6,0.1c0.3,0,0.6,0,1,0c0.1,0.3,0.1,0.5,0.1,0.8c0.1,1.2,0.1,2.5,0.2,3.7
				c0.1,0.8,0.2,1.6,0.3,2.4c0.2,1.1,0.9,1.9,1.9,2.4c1,0.4,1.3,1.2,1.4,2.1c0,0.9,0.1,1.8,0.2,2.7c0.1,4.9,0.3,9.8,0.4,14.8
				C326.6,201,326.6,201.2,326.6,201.4z"/>
			<path class="st46" d="M308.4,237.5c-5.1-3.3-10.7-5.4-16.6-6.7c-5.1-1.2-10.2-1.3-15.4-0.3c-2.8,0.5-5.3,1.5-7.5,3.3
				c-1.1,0.9-2.1,1.8-3.1,2.7c-1.4,1.3-2.3,2.9-3.4,4.4c-4.1,6.2-7,12.8-7.8,20.2c-0.3,2.8-0.3,5.5,0.2,8.3c0.7,4.3,2.3,8.2,4.4,12
				c3.6,6.3,8.7,11.1,15.4,14.1c4.5,2.1,9.2,3.3,14.1,3.9c4,0.5,8,0.4,12-0.7c5-1.3,9.3-3.9,12.6-7.9c3.3-4,6-8.5,7.7-13.4
				c1.4-3.9,1.8-7.9,1.9-12.3c0-1.9-0.2-4.1-0.5-6.2C320.8,249.6,316.1,242.6,308.4,237.5z M317.1,277.1c-1.6,3.9-3.7,7.5-6.3,10.8
				c-3,3.9-7,6.2-11.7,7.3c-3,0.7-6.1,0.8-9.1,0.5c-4.7-0.4-9.2-1.6-13.5-3.5c-5.4-2.4-9.7-6-12.9-10.9c-2.6-4-4.5-8.2-5.2-13
				c-0.4-2.4-0.3-4.8-0.1-7.2c0.8-7.1,3.5-13.4,7.5-19.2c1.9-2.7,4.4-4.8,7.3-6.5c1.3-0.8,2.8-1,4.2-1.3c4.8-1,9.6-0.7,14.3,0.5
				c5.2,1.2,10.2,3.1,14.7,6c7,4.6,11.3,11,12.5,19.3c0.3,1.9,0.4,3.7,0.6,5.6C319.1,269.4,318.7,273.4,317.1,277.1z"/>
			<path class="st46" d="M176.6,246.8c-2.3-4.8-5.4-9-9.8-12.1c-5.5-3.8-11.4-6.4-18.1-7c-3.1-0.3-6.2-0.3-9.2,0.3
				c-3.2,0.6-6.2,1.7-9.2,2.9c-1.1,0.5-2.2,1-3.2,1.7c-2,1.4-4,2.9-5.9,4.4c-1.7,1.4-3,3-4,5c-0.4,0.8-0.9,1.6-1.3,2.4
				c-1,1.8-1.9,3.6-2.4,5.6c-1.5,5.2-2.2,10.6-1.6,16c0.6,5.5,2.3,10.5,5.4,15.1c4,5.8,9.2,10.1,15.7,12.7c4.8,1.9,9.9,2.6,15.9,2.7
				c1.3-0.2,3.5-0.3,5.6-0.7c3.2-0.5,6.3-1.4,9.1-2.9c9.7-5.5,15.3-13.8,16.2-25c0.3-3.3,0.2-6.5-0.1-9.7
				C179.3,254.2,178.3,250.4,176.6,246.8z M175.7,271.9c-0.6,3.1-1.9,5.9-3.6,8.5c-2.4,3.5-5.3,6.4-8.9,8.6c-2.6,1.5-5.3,2.4-8.2,3
				c-5.6,1.1-11.2,1-16.8-0.4c-6.6-1.7-12-5.3-16.3-10.5c-2.8-3.4-4.8-7.3-5.9-11.6c-0.9-3.9-1.1-7.9-0.6-11.9
				c0.3-2.1,0.6-4.3,1.2-6.3c0.3-1.1,0.7-2.2,1.2-3.3c0.7-1.4,1.5-2.8,2.2-4.1c1.1-2,2.7-3.6,4.5-5c1.3-1,2.5-1.9,3.8-2.8
				c1.1-0.8,2.3-1.5,3.6-1.9c2.8-1,5.5-2.1,8.5-2.6c2.7-0.4,5.4-0.5,8-0.2c5.7,0.6,10.8,2.8,15.6,5.9c3.8,2.5,6.6,5.9,8.6,9.9
				c1.9,3.7,3.1,7.6,3.4,11.7c0.1,1.7,0.2,3.5,0.4,5.2C176.4,266.8,176.2,269.4,175.7,271.9z"/>
			<path class="st46" d="M196.6,224.7c0.2,0.6,0.5,1,1.2,1c0.3,0,0.6,0.1,1,0.2c1.7,0.1,3.4,0.2,5.2,0.2c4.6,0.1,9.1,0.1,13.7,0.1
				c0,0,0,0.1,0,0.1c5.3,0,10.6,0,15.9,0c0.8,0,1.6,0,2.3-0.2c0.9-0.2,1.8-0.4,2.6-0.7c1.5-0.6,2.2-1.9,2.3-3.5
				c0.1-1.8-0.4-3.4-1.2-5c-0.8-1.5-2.1-2.6-3.8-2.9c-1.2-0.2-2.4-0.5-3.7-0.5c-4.3-0.1-8.6-0.2-12.9-0.1c-5.1,0-10.3,0-15.4,0.4
				c-1.6,0.1-3.2,0.4-4.6,1c-2,0.9-3,2.4-3,4.6c0,1.1,0,2.2,0.1,3.2C196.3,223.4,196.5,224,196.6,224.7z M200.7,218
				c1.3-0.5,2.6-0.5,4-0.6c8.8-0.4,17.7-0.4,26.5-0.3c1.1,0,2.2,0.2,3.3,0.3c1.1,0.1,1.8,0.7,2.1,1.7c0.2,0.7,0.4,1.4,0.5,2.1
				c0.1,0.7,0,0.9-0.7,1c-0.8,0.2-1.6,0.3-2.5,0.3c-1.6,0.1-3.1,0-4.7,0c-3.7,0-7.4,0-11.1,0c0,0,0-0.1,0-0.1
				c-5.1,0-10.1,0-15.2-0.1c-0.5,0-1.1,0-1.6,0c-0.5,0-0.8-0.2-1-0.7c-0.3-0.8-0.6-1.6-0.6-2.4C199.8,218.5,200,218.3,200.7,218z"/>
			<path class="st46" d="M296.6,178.4c-0.5-2-1.9-3.1-3.9-3.4c-1.9-0.3-3.8-0.2-5.7-0.1c-4.6,0.2-9.2,0.5-13.9,0.7
				c-4.2,0.2-8.3,0.4-12.5,0.5c-6.7,0.2-13.4,0.5-20.1,0.5c-12,0.1-24,0-36-0.4c-7.6-0.2-15.2-0.4-22.8-0.5
				c-5.9-0.1-11.7-0.1-17.6-0.2c-3.5-0.1-7-0.1-10.5,0.1c-0.6,0-1.1,0.1-1.7,0.2c-1.7,0.3-2.7,1.3-3.1,3c-0.1,0.4-0.2,0.9-0.2,1.3
				c0,2,0,4.1,0.1,6.1c0,0.8,0.2,1.6,0.4,2.4c0.1,0.7,0.6,1.2,1.3,1.5c0.3,0.1,0.7,0.3,1.1,0.3c1.7,0.1,3.3,0.3,5,0.3
				c9.9-0.1,19.7-0.2,29.6-0.2c12-0.1,23.9-0.2,35.8-0.3c17,0.2,34,0.4,51,0.5c6.2,0.1,12.3,0.2,18.5-0.2c1.1-0.1,2.3-0.2,3.3-0.5
				c1.4-0.4,2.2-1.4,2.4-2.9c0.3-1.8,0.2-3.6,0-5.5C297,180.5,296.9,179.4,296.6,178.4z M293.7,186.5c-0.7,0.1-1.4,0.2-2,0.3
				c-3.5,0.1-7.1,0.3-10.6,0.3c-8.3,0-16.7-0.2-25-0.3c-16.9-0.1-33.7-0.1-50.6-0.1c-5.1,0-10.3,0.1-15.4,0.1
				c-9.5,0.1-18.9,0.3-28.4,0.4c-3,0-6.1,0-9.1,0c-0.3,0-0.5,0-0.8-0.1c0-0.2-0.1-0.4-0.1-0.6c0-1.7,0.1-3.4,0.1-5.2
				c0-0.1,0-0.3,0-0.4c0.1-1.5,0.3-1.6,1.8-1.7c3.1,0,6.2-0.1,9.4-0.1c6.5,0.1,12.9,0.1,19.4,0.3c8.6,0.2,17.2,0.5,25.7,0.6
				c8.3,0.1,16.7,0.2,25,0.3c9,0.1,18-0.1,27-0.5c7.5-0.3,14.9-0.7,22.4-1c2.3-0.1,4.7-0.3,7-0.4c0.8,0,1.6,0,2.4,0.1
				c1,0.1,1.2,0.3,1.4,1.3c0.2,0.7,0.3,1.4,0.3,2.1c0.1,1.4,0.1,2.8,0.2,4.2C293.7,186.2,293.7,186.3,293.7,186.5z"/>
			<path class="st46" d="M317.1,178.3c-3.2-2.2-7.8-2.2-11,0c-3,2.1-4.4,6.1-3.5,9.8c1,4.2,4.4,7.3,9.3,7.3c2.9-0.1,5.9-1.4,8.1-4.1
				c1.5-1.9,2-4.1,1.5-6.5C321,182.1,319.4,179.9,317.1,178.3z M317.1,189.2c-1.8,2.1-4.1,3-6.7,2.5c-2.1-0.3-3.3-1.7-4.1-3.6
				c-1.7-4,1.5-7.9,5.6-7.8c3.2,0.1,6.1,2.7,6.2,5.8C318.1,187.3,317.8,188.3,317.1,189.2z"/>
			<path class="st46" d="M139,181.8c-0.1-0.9-0.4-1.9-0.8-2.8c-0.6-1.4-1.7-2.2-3.3-2.1c-1.3,0-2.5,0.2-3.7,0.6
				c-1.6,0.6-2.7,1.8-3,3.5c-0.2,0.9-0.2,1.8-0.2,2.7c0,1.6,0.1,3.3,0.2,4.9c0,0,0.1,0,0.1,0c0,2.1,0,4.2,0.1,6.3
				c0,0.9,0.2,1.8,0.4,2.7c0.4,1.4,1.3,2.1,2.8,2.4c1.3,0.2,2.5,0.2,3.8,0c1.8-0.3,3.1-1.3,3.6-3.1c0.2-0.6,0.3-1.3,0.4-2
				c0.1-2.3,0.2-4.5,0.1-6.8C139.4,186,139.2,183.9,139,181.8z M135.8,194.3c0,0.4-0.1,0.9-0.2,1.3c-0.1,0.7-0.4,1-1.1,1
				c-0.8,0.1-1.7,0-2.6,0c-0.1-0.4-0.1-0.7-0.2-1c-0.1-4-0.2-8-0.3-12c0-0.5,0-1.1,0-1.6c0-0.6,0.3-1,0.9-1.2c0.7-0.2,1.4-0.3,2-0.4
				c0.4-0.1,0.6,0.1,0.6,0.5c0.2,0.7,0.4,1.4,0.4,2c0.2,2.2,0.3,4.4,0.4,6.6C135.8,191,135.8,192.6,135.8,194.3z"/>
			<path class="st46" d="M124.9,179.5c-0.7-1.3-1.8-2.1-3.3-2.1c-1.6-0.1-3.2,0.3-4.6,1.1c-0.9,0.5-1.5,1.4-1.7,2.4
				c-0.1,0.5-0.2,1-0.2,1.4c0,1.5,0.1,3.1,0.1,4.6c0,0,0,0-0.1,0c0.1,2.1,0.1,4.1,0.2,6.2c0.1,1.2,0.4,2.5,0.7,3.7
				c0.4,1.5,1.4,2.5,2.9,2.9c1.4,0.4,2.8,0.3,4.1-0.2c1.5-0.6,2.4-1.7,2.8-3.3c0.1-0.3,0.1-0.6,0.1-1c0.3-3.9,0.4-7.8,0-11.8
				C125.9,182.1,125.6,180.7,124.9,179.5z M122.7,195.1c-0.1,0.9-0.3,1.2-1.3,1.4c-0.3,0.1-0.7,0.1-1,0.1c-0.7,0-1.1-0.3-1.2-1
				c-0.2-1.1-0.4-2.1-0.5-3.2c-0.2-2.9-0.3-5.8-0.5-8.7c0-0.6,0-1.1,0-1.7c0-0.5,0.2-0.8,0.7-1c0.7-0.2,1.3-0.4,2-0.5
				c0.6-0.1,0.8,0,1,0.6c0.5,1.1,0.6,2.3,0.7,3.5c0.1,1.9,0.2,3.8,0.3,5.7C122.9,191.9,122.8,193.5,122.7,195.1z"/>
		</g>
	</g>
	<g>
		<g>
			<path class="st43" d="M112,339.4c-0.2-4.5-0.4-9.4-0.7-14.2c-0.1-0.8,0-1.7-0.1-2.5c0-0.4,0.1-0.8,0.3-1.2
				c0.3-0.7,1.1-1.1,1.8-1.1c0.7,0,1.2,0.4,1.5,1c0.2,0.3,0.2,0.7,0.2,1c0.2,6.2,0.5,12.4,0.7,18.5c0.2,5.1,0,10.1-1,15.1
				c-0.5,2.3-1.1,4.6-2.6,6.5c-0.2,0.3-0.5,0.6-0.8,0.9c-1.8,1.8-4.1,1.8-6,0.2c-1.3-1.1-2.1-2.4-2.6-4c-0.7-2.1-1-4.3-1.1-6.5
				c0-1.3,0.7-2.1,1.8-2.1c1.2,0,1.9,0.8,2,2.2c0.1,1.3,0.1,2.5,0.5,3.7c0.4,1.4,0.7,2.7,1.8,3.7c0.3,0.3,0.9,0.3,1.2-0.1
				c0.8-1,1.4-2.2,1.8-3.5c0.9-3.5,1.2-7,1.3-10.6C112,344.2,112,341.9,112,339.4z"/>
			<path class="st43" d="M116.8,336.4c0.1-1.7,0.2-3.6,0.3-5.4c0-0.4,0.1-0.8,0.3-1.1c0.3-0.9,1.2-1.4,2.1-1.2
				c0.9,0.1,1.5,0.9,1.5,1.8c0,0.4-0.1,0.9-0.1,1.3c-0.3,4.7-0.3,9.4,0.7,14c0.3,1.4,0.7,2.7,1.3,4c0.5,1,1.1,2,1.9,2.8
				c1.2,1.2,2.1,1.1,3.2-0.2c0.8-0.9,1.2-2,1.6-3.1c0.9-2.4,1.4-4.9,1.8-7.5c0.6-4,0.7-8,0.5-12.1c-0.1-1.5-0.4-3-0.8-4.4
				c-0.3-1.2,0.2-2.1,1.2-2.4c1-0.3,2.1,0.3,2.5,1.4c0.4,1.2,0.6,2.5,0.7,3.7c0.3,2.8,0.4,5.5,0.3,8.3c-0.3,4.2-0.8,8.4-2,12.5
				c-0.4,1.4-0.9,2.7-1.6,4c-0.7,1.2-1.5,2.4-2.6,3.2c-1.8,1.3-4.3,1.4-6.1,0.3c-1.3-0.8-2.2-1.9-3-3.2c-1.5-2.4-2.3-5.1-2.8-7.8
				C117,342.4,116.9,339.4,116.8,336.4z"/>
			<path class="st43" d="M143.7,322.5c1.2-0.1,2.3,0.3,3.3,0.9c2.5,1.6,3.8,4,4.5,6.8c0.3,1.2-0.3,2-1.4,2.3
				c-0.9,0.2-1.8-0.3-2.2-1.3c-0.1-0.3-0.2-0.6-0.3-0.9c-0.2-0.5-0.4-1-0.6-1.4c-0.3-0.6-0.7-1.1-1.1-1.6c-2.1-2-4.3-0.8-5,1.1
				c-0.5,1.2-0.3,2.4,0.1,3.6c0.6,1.7,1.6,3.2,2.7,4.6c1.7,2,3.4,3.9,5.1,5.8c1.9,2.2,3.5,4.6,4.5,7.3c0.6,1.7,0.9,3.4,0.5,5.1
				c-0.8,3.6-4.1,6.3-7.7,6.3c-3.5,0.1-5.5-2.2-6.3-5.5c-0.2-1-0.2-2.1-0.3-3.1c0-0.2,0-0.4,0-0.5c0.2-1.1,1-1.9,2-1.9
				c0.9,0,1.7,0.8,1.8,1.9c0.1,0.8,0,1.7,0.1,2.5c0.3,2.7,2.2,3.7,4.5,2.2c1.7-1,2.4-3,1.9-4.9c-0.5-1.9-1.5-3.5-2.6-5.1
				c-1.2-1.7-2.7-3.2-4.1-4.8c-1.6-1.8-3.1-3.5-4.4-5.5c-1.4-2.3-2.3-4.8-2-7.5c0.4-2.9,2.4-5.3,5-6.1
				C142.5,322.5,143.1,322.6,143.7,322.5z"/>
			<path class="st43" d="M164.4,324.4c2,0,4,0,6,0c0.4,0,0.9,0,1.3,0.2c1,0.3,1.6,1,1.5,2c-0.1,0.9-0.8,1.6-1.9,1.7
				c-1,0-2.1,0-3.1,0c-2.7,0-2.2,0-2.2,3.6c0,1.6,0,3.1,0,4.7c0.2,7.2,0.7,14.3,1.8,21.4c0.1,0.7,0.2,1.5,0.3,2.2
				c0.1,1.2-0.6,2.2-1.7,2.3c-1,0.1-2-0.8-2.2-2c-0.3-3.2-0.8-6.4-1.1-9.6c-0.4-3.5-0.6-6.9-0.8-10.4c-0.2-3.7-0.1-7.5-0.2-11.2
				c0-1.5,0-1.2-2.2-1.1c-0.9,0-1.8,0.1-2.7,0.2c-0.7,0.1-1.4,0-1.9-0.5c-1-1-0.5-2.7,1-3.1c0.9-0.2,1.8-0.3,2.7-0.3
				C160.9,324.4,162.6,324.4,164.4,324.4C164.4,324.4,164.4,324.4,164.4,324.4z"/>
		</g>
		<g>
			<path class="st43" d="M196.7,347.2c1.2,0.6,2.4,1.2,3.3,2.1c4.2,3.8,4.2,10.1,0,14.3c-2.2,2.2-4.9,3.3-8,3.6
				c-1.5,0.1-2.8-1-3-2.5c-0.4-3.1-0.6-6.1-0.8-9.2c-0.5-9.9-0.7-19.8-0.4-29.6c0-1,0.1-2,0.3-3c0.2-1.2,0.9-1.9,2-2.1
				c5.3-0.6,11.6,2.6,13.8,7.3c1.7,3.6,1.3,7.1-0.3,10.6c-1.4,3-3.4,5.6-6,7.7c-0.3,0.2-0.5,0.4-0.8,0.7
				C196.8,347,196.8,347.1,196.7,347.2z M191.7,346c1.4-0.9,2.5-1.7,3.6-2.6c2.4-2.1,4.3-4.5,5.4-7.6c0.7-1.8,0.8-3.8,0-5.6
				c-1.6-3.5-4.6-5-8.2-5.7c-0.6-0.1-0.8,0.1-0.8,0.8c0,2.3-0.2,4.5-0.2,6.8C191.4,336.6,191.4,341.2,191.7,346z M192.7,363.2
				c2.3-0.4,4-1.4,5.3-3.1c0.9-1.3,1.5-2.7,1.3-4.4c-0.5-3.7-4-5.6-6.9-5.3c-0.6,0.1-0.7,0.3-0.7,0.8c0.2,2.7,0.3,5.5,0.5,8.2
				C192.4,360.7,192.3,362,192.7,363.2z"/>
			<path class="st43" d="M206,356.9c0-3.3,0.2-6.5,0.3-9.8c0.3-6,0.6-12,1-18c0.2-3,0.3-6,0.5-9c0.1-1.3,0.8-2,1.9-2
				c1.1,0,1.8,0.8,1.9,2.1c0,1.1,0,2.2-0.1,3.3c-0.3,4.6-0.5,9.2-0.8,13.8c-0.3,6.3-0.6,12.5-0.9,18.8c-0.1,1.4,0,2.8-0.1,4.2
				c0,0.5,0.4,0.8,0.8,0.8c2.6-0.2,5.1,0.1,7.7-0.3c1.4-0.2,2.3,0.5,2.5,1.7c0.1,1.2-0.7,2.2-2.1,2.2c-2.8,0.1-5.7,0.2-8.5,0.3
				c-0.4,0-0.8,0-1.2,0c-1.7-0.2-2.7-1.3-2.9-3C205.9,360.2,206,358.5,206,356.9z"/>
			<path class="st43" d="M239.1,363.1c0,1.1-0.4,1.7-1.2,2c-0.8,0.3-1.5,0.1-2.1-0.6c-0.4-0.5-0.7-1-0.7-1.6c-0.3-3-1-5.9-1.4-8.9
				c-0.1-0.8-0.4-1-2.1-0.5c-1.4,0.4-2.9,0.5-4.3,0.3c-1-0.2-1.1,0.4-1.2,0.9c-0.1,1-0.2,2-0.3,3c-0.1,1.1-0.2,2.3-0.3,3.4
				c0,0.1,0,0.3,0,0.4c-0.2,1.2-1.1,1.9-2.2,1.7c-1-0.1-1.7-1.1-1.6-2.2c0.1-1.7,0.3-3.5,0.5-5.2c0.5-3.4,0.6-6.9,1-10.4
				c0.8-7.1,1.9-14.2,3.7-21.2c0.2-0.7,0.4-1.4,0.9-2c1-1.2,2.5-1.2,3.5,0c0.5,0.6,0.8,1.3,1,2.1c1,2.9,1.6,6,2.1,9
				c1.3,8.5,2.6,16.9,4,25.4c0.2,1.2,0.4,2.3,0.6,3.5C239.1,362.6,239.1,363,239.1,363.1z M229.6,329.6c-1.4,6.5-2.3,13-2.9,19.5
				c-0.1,0.8,0.1,0.9,0.9,0.9c1.3-0.1,2.7-0.2,4-0.3c1.4-0.1,1.5-0.2,1.2-1.7c-0.1-0.4-0.1-0.9-0.2-1.3c-0.9-5.4-1.5-10.8-2.6-16.2
				C229.9,330.2,230,329.9,229.6,329.6z"/>
			<path class="st43" d="M247,322.5c1.2-0.1,2.3,0.3,3.3,0.9c2.5,1.6,3.8,4,4.5,6.8c0.3,1.2-0.3,2-1.4,2.3c-0.9,0.2-1.8-0.3-2.2-1.3
				c-0.1-0.3-0.2-0.6-0.3-0.9c-0.2-0.5-0.4-1-0.6-1.4c-0.3-0.6-0.7-1.1-1.1-1.6c-2.1-2-4.3-0.8-5,1.1c-0.5,1.2-0.3,2.4,0.1,3.6
				c0.6,1.7,1.6,3.2,2.7,4.6c1.7,2,3.4,3.9,5.1,5.8c1.9,2.2,3.5,4.6,4.5,7.3c0.6,1.7,0.9,3.4,0.5,5.1c-0.8,3.6-4.1,6.3-7.7,6.3
				c-3.5,0.1-5.5-2.2-6.3-5.5c-0.2-1-0.2-2.1-0.3-3.1c0-0.2,0-0.4,0-0.5c0.2-1.1,1-1.9,2-1.9c0.9,0,1.7,0.8,1.8,1.9
				c0.1,0.8,0,1.7,0.1,2.5c0.3,2.7,2.2,3.7,4.5,2.2c1.7-1,2.4-3,1.9-4.9c-0.5-1.9-1.5-3.5-2.6-5.1c-1.2-1.7-2.7-3.2-4.1-4.8
				c-1.6-1.8-3.1-3.5-4.4-5.5c-1.4-2.3-2.3-4.8-2-7.5c0.4-2.9,2.4-5.3,5-6.1C245.8,322.5,246.4,322.6,247,322.5z"/>
			<path class="st43" d="M267.7,324.4c2,0,4,0,6,0c0.4,0,0.9,0,1.3,0.2c1,0.3,1.6,1,1.5,2c-0.1,0.9-0.8,1.6-1.9,1.7
				c-1,0-2.1,0-3.1,0c-2.7,0-2.2,0-2.2,3.6c0,1.6,0,3.1,0,4.7c0.2,7.2,0.7,14.3,1.8,21.4c0.1,0.7,0.2,1.5,0.3,2.2
				c0.1,1.2-0.6,2.2-1.7,2.3c-1,0.1-2-0.8-2.2-2c-0.3-3.2-0.8-6.4-1.1-9.6c-0.4-3.5-0.6-6.9-0.8-10.4c-0.2-3.7-0.1-7.5-0.2-11.2
				c0-1.5,0-1.2-2.2-1.1c-0.9,0-1.8,0.1-2.7,0.2c-0.7,0.1-1.4,0-1.9-0.5c-1-1-0.5-2.7,1-3.1c0.9-0.2,1.8-0.3,2.7-0.3
				C264.2,324.4,265.9,324.4,267.7,324.4C267.7,324.4,267.7,324.4,267.7,324.4z"/>
		</g>
		<g>
			<path class="st43" d="M294.9,324.8c-0.3,9.4-0.2,18.9,0,28.3c0,1.8,0.2,3.7,0.4,5.5c0,0.3,0.1,0.5,0.1,0.8c0,1.1-0.7,1.9-1.7,2
				c-1,0.1-2-0.6-2.1-1.7c-0.1-0.9-0.2-1.8-0.3-2.7c-0.3-4.5-0.3-9-0.3-13.4c-0.1-6.7-0.1-13.4,0.1-20.1c0-0.2,0-0.3,0-0.5
				c0.1-1.1,0.8-1.9,1.8-1.9c0.9-0.1,1.7,0.6,1.9,1.6C295,323.3,294.9,324,294.9,324.8z"/>
			<path class="st43" d="M327.2,321.5c-1.4,9.4-1.7,13.9-2.6,23.3c-0.2,1.8-0.2,3.7-0.3,5.5c0,0.3,0,0.5,0,0.8
				c-0.1,1.1-0.9,1.8-1.9,1.8c-1,0-1.9-0.8-1.9-1.9c0-0.9,0-1.8,0-2.7c0.2-4.5,0.7-8.9,1.2-13.4c0.7-6.7,0.9-8.5,1.8-15.1
				c0-0.2,0-0.3,0.1-0.5c0.2-1.1,1-1.8,2-1.7c0.9,0,1.6,0.7,1.8,1.8C327.5,320,327.3,320.7,327.2,321.5z"/>
			<path class="st43" d="M305.8,324.4c2,0,4,0,6,0c0.4,0,0.9,0,1.3,0.2c1,0.3,1.6,1,1.5,2c-0.1,0.9-0.8,1.6-1.9,1.7
				c-1,0-2.1,0-3.1,0c-2.7,0-2.2,0-2.2,3.6c0,1.6,0,3.1,0,4.7c0.2,7.2,0.7,14.3,1.8,21.4c0.1,0.7,0.2,1.5,0.3,2.2
				c0.1,1.2-0.6,2.2-1.7,2.3c-1,0.1-2-0.8-2.2-2c-0.3-3.2-0.8-6.4-1.1-9.6c-0.4-3.5-0.6-6.9-0.8-10.4c-0.2-3.7-0.1-7.5-0.2-11.2
				c0-1.5,0-1.2-2.2-1.1c-0.9,0-1.8,0.1-2.7,0.2c-0.7,0.1-1.4,0-1.9-0.5c-1-1-0.5-2.7,1-3.1c0.9-0.2,1.8-0.3,2.7-0.3
				C302.3,324.4,304.1,324.4,305.8,324.4C305.8,324.4,305.8,324.4,305.8,324.4z"/>
			<path class="st43" d="M318.3,360c-0.2-2.1,1.2-3.8,3.1-3.9c2-0.1,3.6,1.6,3.6,3.5c0,2-1.3,3.5-3.3,3.6
				C320,363.2,318.5,361.7,318.3,360z"/>
		</g>
	</g>
</g>
</svg>
